<svg width="801" height="601" viewBox="0 0 801 601" fill="none" xmlns="http://www.w3.org/2000/svg">
<path d="M350.452 0.541992C308.85 0.541992 272.522 17.7295 235.804 39.6045C199.085 61.4795 162.561 89.7998 129.358 119.487C96.3505 149.37 66.663 180.62 44.0067 209.331C32.6786 223.784 23.1083 237.456 15.4911 251.128C7.87393 264.995 0.452034 277.69 0.452034 300.542C0.452034 323.394 7.87393 336.089 15.4911 349.761C23.1083 363.628 32.6786 377.3 44.0067 391.558C66.663 420.464 96.3505 451.714 129.358 481.401C162.561 511.284 199.085 539.604 235.804 561.479C272.522 583.354 308.85 600.542 350.452 600.542H650.452C732.679 600.542 800.452 532.769 800.452 450.542V150.542C800.452 68.3154 732.679 0.541992 650.452 0.541992H350.452ZM400.452 150.542C413.733 150.542 426.429 155.815 435.804 165.19L500.452 229.839L565.1 165.19C574.475 155.815 587.171 150.542 600.452 150.542C613.733 150.542 626.429 155.815 635.804 165.19C655.335 184.722 655.335 216.362 635.804 235.894L571.155 300.542L635.804 365.19C655.335 384.722 655.335 416.362 635.804 435.894C616.272 455.425 584.632 455.425 565.1 435.894L500.452 371.245L435.804 435.894C416.272 455.425 384.632 455.425 365.1 435.894C345.569 416.362 345.569 384.722 365.1 365.19L429.749 300.542L365.1 235.894C345.569 216.362 345.569 184.722 365.1 165.19C374.475 155.815 387.171 150.542 400.452 150.542Z" fill="white"/>
</svg>
