<svg width="261" height="106" viewBox="0 0 261 106" fill="none" xmlns="http://www.w3.org/2000/svg">
<path d="M3.90345 21.4073C4.77843 21.676 7.41665 22.4862 13.2716 23.8055C21.8929 25.7482 31.1927 26.8864 39.4381 28.7005C48.1161 30.6098 58.3199 30.6257 66.9566 32.7957C73.4926 34.4379 78.8886 33.8016 97.251 34.5009C104.105 34.762 109.077 33.1711 113.386 31.7163C116.382 30.705 122.78 29.4146 134.908 24.8336C151.506 18.564 161.016 12.1201 162.549 10.6612C165.588 7.76834 169.364 6.95122 172.251 5.05215C173.619 4.15176 175.219 3.66437 176.196 3.23535C176.517 3.09447 176.551 4.05163 176.316 4.8282C174.745 10.0253 168.698 14.6967 165.104 18.5439C161.35 22.5627 157.192 25.4242 153.34 28.1151C149.116 31.067 145.664 33.0114 142.949 33.9983C137.656 35.9223 126.724 39.7439 118.736 42.0276C108.659 44.9085 103.975 47.5409 100.593 48.3123C95.7763 49.4111 91.4934 51.1938 87.3333 51.7369C82.0796 52.4229 78.6915 54.284 75.4811 56.0691C72.5705 57.6875 70.0205 58.8749 69.1171 59.4426C65.7433 61.5627 82.5731 63.4698 89.7046 63.9626C93.1577 64.2012 96.6107 65.1187 104.334 64.6071C120.502 63.5359 132.604 62.8762 135.504 62.0768C140.025 60.8308 145.064 58.4912 149.332 56.0482C153.739 53.5257 158.883 52.0867 164.15 49.4861C175.091 44.0839 179.886 43.5503 184.149 43.0387C187.67 42.6162 191.323 41.7384 192.912 42.0922C200.848 43.859 184.522 52.9244 180.598 57.8597C170.004 71.184 166.735 76.2161 162.951 80.2696C160.018 83.4118 158.093 85.4366 158.037 86.3877C157.782 90.6842 172.48 84.8136 181.037 83.0746C188.048 81.6498 193.956 79.5561 198.204 78.7861C199.072 78.6287 200.09 78.524 200.266 79.1691C201.508 83.737 196.547 87.7944 193.983 92.5778C193.429 93.6098 193.259 94.5318 193.802 94.713C198.109 96.1507 202.362 93.9687 205.181 94.2252C207.289 94.4169 206.517 98.6032 206.459 101.128C206.343 106.266 217.092 98.7465 226.256 97.2047C231.597 96.3061 235.717 94.7895 240.072 93.2218C244.698 91.5565 248.467 89.5071 250.774 87.9234C252.504 87.3668 254.183 86.671 255.547 85.7623C256.271 85.3755 257.062 85.1395 257.876 84.8964" stroke="url(#paint0_linear_243_24)" stroke-width="6" stroke-linecap="round"/>
<defs>
<linearGradient id="paint0_linear_243_24" x1="148.814" y1="-5.21168" x2="123.429" y2="77.4456" gradientUnits="userSpaceOnUse">
<stop stop-color="#C9D6E8"/>
<stop offset="1" stop-color="#310DB4"/>
</linearGradient>
</defs>
</svg>
