<svg width="261" height="60" viewBox="0 0 261 60" fill="none" xmlns="http://www.w3.org/2000/svg">
  <path d="M3 40C8 38 15 30 22 32C29 34 33 42 40 44C47 46 53 39 60 36C67 33 75 38 82 42C89 46 94 45 101 42C108 39 114 32 121 34C128 36 132 44 139 47C146 50 151 44 158 40C165 36 172 34 179 38C186 42 191 50 198 50C205 50 211 44 218 42C225 40 231 42 238 44C245 46 251 48 258 44" stroke="url(#paint0_linear)" stroke-width="6" stroke-linecap="round"/>
  <defs>
    <linearGradient id="paint0_linear" x1="0" y1="0" x2="261" y2="60" gradientUnits="userSpaceOnUse">
      <stop offset="0%" stop-color="hsl(242, 100%, 93%)" />
      <stop offset="50%" stop-color="hsl(37, 100%, 80%)" />
      <stop offset="100%" stop-color="hsl(120, 100%, 50%)" />
    </linearGradient>
  </defs>
</svg>
